<?xml version="1.0" encoding="UTF-8" standalone="no"?>
<!-- Generator: Adobe Illustrator 19.0.0, SVG Export Plug-In . SVG Version: 6.00 Build 0)  -->

<svg
   xmlns:dc="http://purl.org/dc/elements/1.1/"
   xmlns:cc="http://creativecommons.org/ns#"
   xmlns:rdf="http://www.w3.org/1999/02/22-rdf-syntax-ns#"
   xmlns:svg="http://www.w3.org/2000/svg"
   xmlns="http://www.w3.org/2000/svg"
   xmlns:sodipodi="http://sodipodi.sourceforge.net/DTD/sodipodi-0.dtd"
   xmlns:inkscape="http://www.inkscape.org/namespaces/inkscape"
   version="1.1"
   id="Capa_1"
   x="0px"
   y="0px"
   viewBox="0 0 512 512"
   style="enable-background:new 0 0 512 512;"
   xml:space="preserve"
   sodipodi:docname="004-instagram.svg"
   inkscape:version="0.92.3 (2405546, 2018-03-11)"><metadata
   id="metadata79"><rdf:RDF><cc:Work
       rdf:about=""><dc:format>image/svg+xml</dc:format><dc:type
         rdf:resource="http://purl.org/dc/dcmitype/StillImage" /></cc:Work></rdf:RDF></metadata><defs
   id="defs77" /><sodipodi:namedview
   pagecolor="#ffffff"
   bordercolor="#666666"
   borderopacity="1"
   objecttolerance="10"
   gridtolerance="10"
   guidetolerance="10"
   inkscape:pageopacity="0"
   inkscape:pageshadow="2"
   inkscape:window-width="791"
   inkscape:window-height="480"
   id="namedview75"
   showgrid="false"
   inkscape:zoom="0.4609375"
   inkscape:cx="250.57627"
   inkscape:cy="284.20339"
   inkscape:window-x="0"
   inkscape:window-y="30"
   inkscape:window-maximized="0"
   inkscape:current-layer="Capa_1" />
<g
   id="g6"
   style="fill:#ffffff;fill-opacity:1">
	<g
   id="g4"
   style="fill:#ffffff;fill-opacity:1">
		<path
   d="M362,0H150C67.29,0,0,67.29,0,150v212c0,82.71,67.29,150,150,150h212c82.71,0,150-67.29,150-150V150    C512,67.29,444.71,0,362,0z M492,362c0,71.682-58.318,130-130,130H150c-71.682,0-130-58.318-130-130V150    C20,78.318,78.318,20,150,20h212c71.682,0,130,58.318,130,130V362z"
   id="path2"
   style="fill:#ffffff;fill-opacity:1" />
	</g>
</g>
<g
   id="g12"
   style="fill:#ffffff;fill-opacity:1">
	<g
   id="g10"
   style="fill:#ffffff;fill-opacity:1">
		<path
   d="M362,44H150C91.551,44,44,91.551,44,150v212c0,58.449,47.551,106,106,106h61c5.523,0,10-4.477,10-10s-4.477-10-10-10h-61    c-47.42,0-86-38.58-86-86V150c0-47.42,38.58-86,86-86h212c47.42,0,86,38.58,86,86v212c0,47.42-38.58,86-86,86h-60.333    c-5.523,0-10,4.477-10,10s4.477,10,10,10H362c58.449,0,106-47.551,106-106V150C468,91.551,420.449,44,362,44z"
   id="path8"
   style="fill:#ffffff;fill-opacity:1" />
	</g>
</g>
<g
   id="g18"
   style="fill:#ffffff;fill-opacity:1">
	<g
   id="g16"
   style="fill:#ffffff;fill-opacity:1">
		<path
   d="M263.07,450.93c-1.86-1.86-4.44-2.93-7.07-2.93s-5.21,1.07-7.07,2.93S246,455.37,246,458s1.07,5.21,2.93,7.07    S253.37,468,256,468s5.21-1.07,7.07-2.93c1.86-1.86,2.93-4.44,2.93-7.07S264.93,452.79,263.07,450.93z"
   id="path14"
   style="fill:#ffffff;fill-opacity:1" />
	</g>
</g>
<g
   id="g24"
   style="fill:#ffffff;fill-opacity:1">
	<g
   id="g22"
   style="fill:#ffffff;fill-opacity:1">
		<path
   d="M175.83,155.71c-3.777-4.03-10.104-4.236-14.135-0.461l-0.443,0.417c-4.017,3.79-4.201,10.119-0.41,14.136    c1.967,2.085,4.618,3.137,7.275,3.137c2.462,0,4.929-0.904,6.861-2.727l0.391-0.367C179.399,166.069,179.606,159.74,175.83,155.71    z"
   id="path20"
   style="fill:#ffffff;fill-opacity:1" />
	</g>
</g>
<g
   id="g30"
   style="fill:#ffffff;fill-opacity:1">
	<g
   id="g28"
   style="fill:#ffffff;fill-opacity:1">
		<path
   d="M256,118c-21.964,0-43.824,5.291-63.217,15.301c-4.907,2.533-6.832,8.565-4.299,13.473    c2.534,4.907,8.566,6.831,13.473,4.299C218.762,142.398,236.945,138,256,138c65.065,0,118,52.935,118,118s-52.935,118-118,118    s-118-52.935-118-118c0-20.419,5.295-40.537,15.313-58.178c2.727-4.802,1.045-10.906-3.758-13.634    c-4.803-2.726-10.906-1.045-13.634,3.758C124.197,208.592,118,232.125,118,256c0,76.093,61.907,138,138,138s138-61.907,138-138    S332.093,118,256,118z"
   id="path26"
   style="fill:#ffffff;fill-opacity:1" />
	</g>
</g>
<g
   id="g36"
   style="fill:#ffffff;fill-opacity:1">
	<g
   id="g34"
   style="fill:#ffffff;fill-opacity:1">
		<path
   d="M256,166c-49.626,0-90,40.374-90,90c0,49.626,40.374,90,90,90c49.626,0,90-40.374,90-90C346,206.374,305.626,166,256,166z     M256,326c-38.598,0-70-31.402-70-70c0-38.598,31.402-70,70-70c38.598,0,70,31.402,70,70C326,294.598,294.598,326,256,326z"
   id="path32"
   style="fill:#ffffff;fill-opacity:1" />
	</g>
</g>
<g
   id="g42"
   style="fill:#ffffff;fill-opacity:1">
	<g
   id="g40"
   style="fill:#ffffff;fill-opacity:1">
		<path
   d="M387.25,86.75c-20.953,0-38,17.047-38,38s17.047,38,38,38s38-17.047,38-38S408.203,86.75,387.25,86.75z M387.25,142.75    c-9.925,0-18-8.075-18-18s8.075-18,18-18s18,8.075,18,18S397.175,142.75,387.25,142.75z"
   id="path38"
   style="fill:#ffffff;fill-opacity:1" />
	</g>
</g>
<g
   id="g44"
   style="fill:#ffffff;fill-opacity:1">
</g>
<g
   id="g46"
   style="fill:#ffffff;fill-opacity:1">
</g>
<g
   id="g48"
   style="fill:#ffffff;fill-opacity:1">
</g>
<g
   id="g50"
   style="fill:#ffffff;fill-opacity:1">
</g>
<g
   id="g52"
   style="fill:#ffffff;fill-opacity:1">
</g>
<g
   id="g54"
   style="fill:#ffffff;fill-opacity:1">
</g>
<g
   id="g56"
   style="fill:#ffffff;fill-opacity:1">
</g>
<g
   id="g58"
   style="fill:#ffffff;fill-opacity:1">
</g>
<g
   id="g60"
   style="fill:#ffffff;fill-opacity:1">
</g>
<g
   id="g62"
   style="fill:#ffffff;fill-opacity:1">
</g>
<g
   id="g64"
   style="fill:#ffffff;fill-opacity:1">
</g>
<g
   id="g66"
   style="fill:#ffffff;fill-opacity:1">
</g>
<g
   id="g68"
   style="fill:#ffffff;fill-opacity:1">
</g>
<g
   id="g70"
   style="fill:#ffffff;fill-opacity:1">
</g>
<g
   id="g72"
   style="fill:#ffffff;fill-opacity:1">
</g>
</svg>